<?xml version="1.0" encoding="utf-8"?>
<!-- Generator: Adobe Illustrator 16.0.0, SVG Export Plug-In . SVG Version: 6.00 Build 0)  -->
<!DOCTYPE svg PUBLIC "-//W3C//DTD SVG 1.1//EN" "http://www.w3.org/Graphics/SVG/1.1/DTD/svg11.dtd">
<svg version="1.1" id="Layer_1" xmlns="http://www.w3.org/2000/svg" xmlns:xlink="http://www.w3.org/1999/xlink" x="0px" y="0px"
	 width="110px" height="110px" viewBox="0 0 136.914 136.914" enable-background="new 0 0 136.914 136.914"
	 xml:space="preserve">
<g>
	<g>
		<g>
			<g>
				<g>
					<circle fill="#A2D4DE" cx="68.456" cy="68.458" r="63.333"/>
				</g>
			</g>
		</g>
	</g>
	<g>
		<g>
			<g>
				<g>
					<path fill="#6CC077" d="M113.24,23.674c24.732,24.732,24.734,64.832-0.002,89.566c-24.73,24.732-64.832,24.732-89.564,0
						L113.24,23.674z"/>
				</g>
			</g>
		</g>
	</g>
	<g>
		<g>
			<path fill="#FFFFFF" d="M124.338,38.645c-0.484-0.906-0.988-1.799-1.516-2.676c-58.635,22.844-84.529,77.867-88.109,86.072
				c0.865,0.547,1.742,1.07,2.635,1.576C40.043,117.323,65.424,61.381,124.338,38.645z"/>
		</g>
	</g>
	<g>
		<g>
			<g>
				<path fill="#CC3432" d="M68.641,26.59c-15.42,0-27.92,12.5-27.92,27.916c0,20.307,26.348,47.459,28.717,47.459
					S96.553,72.42,96.553,54.506C96.553,39.09,84.057,26.59,68.641,26.59z M68.506,63.838c-6.053,0-10.955-4.77-10.955-10.658
					s4.902-10.662,10.955-10.662c6.051,0,10.955,4.773,10.955,10.662S74.557,63.838,68.506,63.838z"/>
			</g>
			<g>
				<path fill="#BA2E2D" d="M69.438,102.465c-2.465,0-29.217-27.441-29.217-47.959c0-15.668,12.749-28.416,28.42-28.416
					c15.666,0,28.412,12.748,28.412,28.416C97.053,72.321,72.162,102.465,69.438,102.465z M68.641,27.09
					c-15.119,0-27.42,12.299-27.42,27.416c0,20.381,25.894,46.467,28.212,46.955c2.37-0.611,26.62-29.195,26.62-46.955
					C96.053,39.389,83.756,27.09,68.641,27.09z M68.506,64.338c-6.316,0-11.455-5.006-11.455-11.158
					c0-6.156,5.139-11.162,11.455-11.162s11.455,5.006,11.455,11.162C79.961,59.333,74.822,64.338,68.506,64.338z M68.506,43.018
					c-5.765,0-10.455,4.559-10.455,10.162c0,5.602,4.69,10.158,10.455,10.158c5.766,0,10.455-4.557,10.455-10.158
					C78.961,47.577,74.271,43.018,68.506,43.018z"/>
			</g>
		</g>
	</g>
</g>
</svg>
