<svg xmlns="http://www.w3.org/2000/svg" width="100px" height="100px" viewBox="0 0 100 100"><path fill="#324D5B" d="M50 0c27.614 0 50 22.386 50 50s-22.386 50-50 50-50-22.386-50-50 22.386-50 50-50z"/><path fill="#475F6C" d="M95.161 71.476c-11.992-5.28-27.591-8.476-44.661-8.476-17.461 0-33.391 3.341-45.488 8.837 8.107 16.671 25.204 28.163 44.988 28.163 19.927 0 37.126-11.658 45.161-28.524z"/><path fill="#ccc" d="M70.911 66.767l-17.366-9.951 9.45-5.816-12.995-7.996-12.995 7.996 9.813 6.039-16.975 9.728c-.958.549-.958 1.919 0 2.468l20.534 11.765 20.534-11.766c.957-.548.957-1.919 0-2.467zm-29.845-15.767l8.934-5.331 8.934 5.331-8.934 5.331-8.934-5.331zm9.311 26.75l-17.285-9.75 16.455-9.282.453.279.813-.501 16.85 9.504-17.286 9.75z"/><path fill="#F2F1EF" d="M75.732 75.971l-23-48.96c-.218-.38-.541-.658-.909-.826-.312-.697-1.01-1.185-1.823-1.185-.684 0-1.286.344-1.647.868-.441.151-.834.448-1.085.884l-23 48.497c-.552.956-.225 2.18.732 2.731.957.553 2.18.225 2.732-.731l20.268-42.735v48.486c0 1.104.896 2 2 2s2-.896 2-2v-48.153l20.268 43.143c.553.966 1.775 1.297 2.732.739s1.284-1.793.732-2.758z"/><path fill="#EFC75E" d="M50 18c2.762 0 5 2.239 5 5 0 2.762-2.238 5-5 5s-5-2.238-5-5c0-2.761 2.238-5 5-5z"/><g fill="#315F73"><path d="M30.13 54.979l.857-1.826c-9.629-6.35-15.987-17.256-15.987-29.653 0-3.75.585-7.362 1.663-10.755-.965.865-1.892 1.771-2.788 2.707-.567 2.593-.875 5.284-.875 8.048 0 13.198 6.824 24.795 17.13 31.479zM60.951 35.993l.875 1.862c4.367-3.481 7.174-8.836 7.174-14.855 0-10.493-8.507-19-19-19s-19 8.507-19 19c0 6.019 2.807 11.374 7.174 14.855l.875-1.862c-3.696-3.119-6.049-7.779-6.049-12.993 0-9.389 7.611-17 17-17s17 7.611 17 17c0 5.214-2.353 9.874-6.049 12.993zM76 23c0 8.829-4.41 16.617-11.138 21.316l.868 1.848c7.406-5.037 12.27-13.532 12.27-23.164 0-6.993-2.569-13.382-6.809-18.289-1.599-.749-3.245-1.412-4.931-1.992 5.936 4.765 9.74 12.077 9.74 20.281zM34.27 46.164l.869-1.848c-6.728-4.699-11.139-12.487-11.139-21.316 0-8.204 3.804-15.516 9.739-20.281-1.686.58-3.332 1.243-4.931 1.992-4.239 4.907-6.808 11.296-6.808 18.289 0 9.632 4.865 18.127 12.27 23.164zM87.396 16.825c-.857-.966-1.753-1.896-2.683-2.793.833 3.016 1.287 6.188 1.287 9.468 0 12.724-6.698 23.878-16.756 30.146l.857 1.825c10.737-6.597 17.899-18.446 17.899-31.971 0-2.279-.215-4.507-.604-6.675zM50 14c4.971 0 9 4.029 9 9 0 1.957-.631 3.762-1.691 5.238l.947 2.015c1.703-1.937 2.744-4.471 2.744-7.253 0-6.075-4.925-11-11-11s-11 4.925-11 11c0 2.782 1.041 5.316 2.745 7.253l.946-2.015c-1.06-1.476-1.691-3.281-1.691-5.238 0-4.971 4.029-9 9-9z"/></g><path fill="#D7B354" d="M51 26c-2.762 0-5-2.238-5-5 0-.397.058-.778.146-1.149-.706.862-1.146 1.949-1.146 3.149 0 2.762 2.238 5 5 5 2.364 0 4.334-1.646 4.854-3.851-.916 1.121-2.292 1.851-3.854 1.851z"/></svg>
